<?xml version="1.0" encoding="UTF-8" standalone="no"?>
<!-- Created with Inkscape (http://www.inkscape.org/) -->

<svg
   width="210mm"
   height="297mm"
   viewBox="0 0 210 297"
   version="1.1"
   id="svg5"
   inkscape:version="1.1.2 (b8e25be833, 2022-02-05)"
   sodipodi:docname="logo68.svg"
   xmlns:inkscape="http://www.inkscape.org/namespaces/inkscape"
   xmlns:sodipodi="http://sodipodi.sourceforge.net/DTD/sodipodi-0.dtd"
   xmlns="http://www.w3.org/2000/svg"
   xmlns:svg="http://www.w3.org/2000/svg">
  <sodipodi:namedview
     id="namedview7"
     pagecolor="#ffffff"
     bordercolor="#666666"
     borderopacity="1.0"
     inkscape:pageshadow="2"
     inkscape:pageopacity="0.0"
     inkscape:pagecheckerboard="0"
     inkscape:document-units="mm"
     showgrid="false"
     showguides="true"
     inkscape:guide-bbox="true"
     inkscape:snap-global="true"
     inkscape:zoom="1"
     inkscape:cx="526.5"
     inkscape:cy="577"
     inkscape:window-width="1920"
     inkscape:window-height="1017"
     inkscape:window-x="-8"
     inkscape:window-y="-8"
     inkscape:window-maximized="1"
     inkscape:current-layer="layer1" />
  <defs
     id="defs2">
    <rect
       x="84.852813"
       y="-1320.8755"
       width="492.14632"
       height="135.7645"
       id="rect29941" />
    <rect
       x="36.769553"
       y="-1357.645"
       width="579.82753"
       height="214.96051"
       id="rect22345" />
    <rect
       x="-844"
       y="-516"
       width="1212"
       height="388"
       id="rect7576" />
  </defs>
  <g
     inkscape:label="Warstwa 1"
     inkscape:groupmode="layer"
     id="layer1">
    <circle
       id="path15384"
       style="fill:#000000;stroke:none;stroke-width:0.264583"
       cx="-141.81667"
       cy="-605.36664"
       r="0.39687499" />
    <g
       id="path15494"
       transform="matrix(0.17719519,0,0,0.17719519,48.918483,355.92391)"
       style="fill:#483737;fill-opacity:0.48996;stroke:#ff0000;stroke-width:18.8976">
      <g
         id="path19113"
         style="fill:#483737">
        <path
           style="color:#000000;fill:#483737;fill-opacity:0.48996;stroke:none;stroke-width:18.8976;-inkscape-stroke:none"
           d="m 328,-1724 -202.28711,80.6348 -85.066406,21.0449 -95.642578,14.1933 -66.607426,6.5801 -35.73046,-3.2383 L -198,-1616.627 c 7.87351,75.8811 -10.20488,190.3127 11.2168,263.5352 C -91.208132,-1026.4019 169.83215,-734.85677 328,-640 c 158.16785,-94.85677 419.2081,-386.4019 514.7832,-713.0918 21.42165,-73.2225 3.34329,-187.6541 11.2168,-263.5352 l -40.66602,11.8418 -35.73046,3.2383 -66.60743,-6.5801 -95.64257,-14.1933 -85.06641,-21.0449 z"
           id="path19263" />
        <path
           style="color:#000000;fill:#483737;fill-opacity:1;stroke:none;-inkscape-stroke:none"
           d="m 328,-1734.1719 -3.49805,1.3946 -201.6875,80.3945 -83.999997,20.7812 -94.96875,14.0938 -65.488283,6.4707 -33.92773,-3.0762 -53.27735,-15.5137 1.44922,13.9747 c 3.80981,36.7171 1.3403,84.1484 0.47852,131.6191 -0.86178,47.4707 -0.21606,95.0219 11.06836,133.5937 96.451464,329.6856 357.43346,621.65266 518.99218,718.54302 l 4.85938,2.91406 4.85937,-2.91406 c 161.55873,-96.89036 422.54069,-388.85742 518.99219,-718.54302 11.28441,-38.5718 11.93014,-86.123 11.06836,-133.5937 -0.86177,-47.4707 -3.33129,-94.902 0.47852,-131.6191 l 1.44922,-13.9747 -53.27735,15.5137 -33.92773,3.0762 -65.48828,-6.4707 -94.96875,-14.0938 -84,-20.7812 z m 0,20.3438 199.38867,79.4804 86.13281,21.3086 96.31641,14.293 67.72656,6.6895 37.53321,-3.4004 28.37304,-8.2618 c -2.33028,36.2899 -0.20061,78.4217 0.55469,120.0274 0.85361,47.0209 -0.17332,93.2967 -10.31055,127.9473 C 739.98712,-1035.3688 483.31916,-747.02471 328,-651.14648 172.68084,-747.02471 -83.98715,-1035.3688 -177.71484,-1355.7441 c -10.13724,-34.6506 -11.16417,-80.9264 -10.31055,-127.9473 0.75531,-41.6057 2.88497,-83.7375 0.55469,-120.0274 l 28.37304,8.2618 37.53321,3.4004 67.726559,-6.6895 96.316407,-14.293 86.132814,-21.3086 z"
           id="path19265" />
      </g>
      <g
         id="path19115"
         style="fill:#483737">
        <path
           style="color:#000000;fill:#483737;fill-opacity:0.48996;stroke:none;stroke-width:18.8976;-inkscape-stroke:none"
           d="m 328,-1754.5156 -10.49609,4.1836 -200.48438,79.916 -81.869139,20.2539 -93.623047,13.8945 -63.246094,6.2481 -30.32422,-2.7481 -78.50195,-22.8613 4.34961,41.9277 c 3.55592,34.2703 1.2508,81.4038 0.38086,129.3242 -0.86995,47.9205 -0.60738,96.7511 11.82422,139.2442 98.20445,335.6775 359.06937,628.48564 527.41015,729.44335 l 14.58008,8.74218 14.58008,-8.74218 c 168.34078,-100.95771 429.20567,-393.76585 527.41015,-729.44335 12.43158,-42.4931 12.69416,-91.3237 11.82422,-139.2442 -0.86994,-47.9204 -3.17506,-95.0539 0.38086,-129.3242 l 4.34961,-41.9277 -78.50195,22.8613 -30.32422,2.7481 -63.24609,-6.2481 -93.62305,-13.8945 -81.86914,-20.2539 z m 0,61.0312 193.59375,77.1699 88.26367,21.836 97.66211,14.4922 69.96875,6.9121 41.13672,-3.7285 5.07422,-1.4766 c -0.49567,30.69 0.85349,63.0846 1.43164,94.9316 0.84545,46.5712 -0.56464,91.5675 -9.55469,122.2969 C 725.60982,-1053.5324 477.99649,-771.71528 328,-673.47266 178.0035,-771.71528 -69.609853,-1053.5324 -159.57617,-1361.0508 c -8.99006,-30.7293 -10.40014,-75.7257 -9.55469,-122.2969 0.57815,-31.847 1.92731,-64.2416 1.43164,-94.9316 l 5.07422,1.4766 41.13672,3.7285 69.968749,-6.9121 97.662109,-14.4922 88.263672,-21.836 z"
           id="path19269" />
        <path
           style="color:#000000;fill:#483737;fill-opacity:1;stroke:none;-inkscape-stroke:none"
           d="m 328,-1764.6875 -3.49805,1.3945 -10.49609,4.1836 -199.88477,79.6758 -80.802731,19.9902 -92.949218,13.795 -62.126951,6.1386 -28.52149,-2.5859 -91.11328,-26.5332 5.79883,55.9023 c 3.42086,32.9687 1.20543,80.067 0.33203,128.1778 -0.87269,48.0714 -0.76614,97.7374 12.20313,142.0683 99.05473,338.5839 360.06013,632.00681 531.61914,734.89456 L 328,-595.92969 l 19.43945,-11.65625 c 171.55902,-102.88775 432.56438,-396.31066 531.61914,-734.89456 12.96925,-44.3309 13.07581,-93.9969 12.20313,-142.0683 -0.8734,-48.1108 -3.08883,-95.2091 0.33203,-128.1778 l 5.79883,-55.9023 -91.11328,26.5332 -28.52149,2.5859 -62.12695,-6.1386 -92.94922,-13.795 -80.80273,-19.9902 z m 0,20.3437 208.08203,82.9454 82.93555,20.5175 94.29687,13.9942 64.36524,6.3574 32.12695,-2.9102 65.89063,-19.1875 -2.9004,27.9512 c -3.69096,35.5719 -1.29616,82.7408 -0.42968,130.4707 0.8672,47.7695 0.44858,95.7647 -11.44532,136.4199 -97.354,332.7705 -358.07896,624.96477 -523.20117,723.99223 l -9.7207,5.82813 -9.7207,-5.82813 c -165.12221,-99.02746 -425.8472,-391.22173 -523.20117,-723.99223 -11.89391,-40.6551 -12.31253,-88.6504 -11.44532,-136.4199 0.86648,-47.7299 3.26128,-94.8988 -0.42968,-130.4707 l -2.9004,-27.9512 65.89063,19.1875 32.12695,2.9102 64.365237,-6.3574 94.296875,-13.9942 82.935548,-20.5175 201.08398,-80.1563 z m 0,40.6875 -3.49805,1.3946 -192.99414,76.9297 -87.197263,21.5722 -96.988281,14.3926 -68.849606,6.8027 -39.33399,-3.5664 -16.49219,-4.7988 0.20704,12.8027 c 0.48946,30.3059 -0.85076,62.61 -1.43164,94.6075 -0.85092,46.8722 0.32034,92.2616 9.93359,125.1211 90.841303,310.5092 338.52916,592.66108 491.4668,692.83004 l 5.17773,3.39063 5.17773,-3.39063 c 152.93763,-100.16896 400.62546,-382.32084 491.4668,-692.83004 9.61323,-32.8596 10.78451,-78.2489 9.93359,-125.1211 -0.58088,-31.9975 -1.9211,-64.3016 -1.43164,-94.6075 l 0.20704,-12.8027 -16.49219,4.7988 -39.33399,3.5664 -68.84961,-6.8027 -96.98828,-14.3926 -87.19726,-21.5722 z m 0,20.3438 190.69531,76.0156 89.33008,22.0996 98.33594,14.5918 71.08789,7.0215 36.76953,-3.332 c -0.0757,27.5471 0.95981,55.9209 1.46484,83.7402 0.83999,46.2701 -0.80893,90.8735 -9.17578,119.4727 C 718.44088,-1062.6772 475.61445,-784.29273 328,-684.89648 180.38554,-784.29273 -62.440914,-1062.6772 -150.50781,-1363.7031 c -8.36685,-28.5991 -10.01577,-73.2026 -9.17578,-119.4727 0.50503,-27.8193 1.54059,-56.1931 1.46484,-83.7402 l 36.76953,3.332 71.087892,-7.0215 98.335937,-14.5918 89.330081,-22.0996 z"
           id="path19271" />
      </g>
    </g>
    <g
       id="rect19313"
       transform="matrix(0.6789941,0,0,0.6789941,47.903333,358.0268)">
      <path
         style="color:#000000;fill:#00ffff;fill-opacity:0.48996;stroke-width:4.99999;-inkscape-stroke:none"
         d="M 9.728611,-359.21024 H 163.14132 v 56.87496 H 9.728611 Z"
         id="path34691" />
      <path
         style="color:#000000;fill:#ff0000;-inkscape-stroke:none"
         d="m 7.2285156,-361.71094 v 2.5 59.375 H 165.64062 v -61.875 z m 5.0000004,5 H 160.64062 v 51.875 H 12.228516 Z"
         id="path34693" />
    </g>
    <text
       xml:space="preserve"
       transform="scale(0.26458333)"
       id="text22343"
       style="fill:black;fill-opacity:1;line-height:1.25;stroke:none;font-family:sans-serif;font-style:normal;font-weight:normal;font-size:40px;white-space:pre;shape-inside:url(#rect22345)" />
    <g
       aria-label="football serwis"
       transform="matrix(0.34064029,0,0,0.75334388,31.605549,1111.9714)"
       id="text29939"
       style="font-size:40px;white-space:pre">
      <path
         d="m 98.133516,-1303.2 h -5.4 v 18.72 h -3.52 v -18.72 h -3.76 v -1.64 l 3.76,-1.2 v -1.24 q 0,-4.16 1.8,-5.96 1.84,-1.84 5.16,-1.84 1.24,0 2.32,0.24 1.08,0.2 1.840004,0.48 l -0.920004,2.76 q -0.64,-0.2 -1.48,-0.4 -0.84,-0.2 -1.72,-0.2 -1.76,0 -2.64,1.2 -0.84,1.16 -0.84,3.68 v 1.4 h 5.4 z"
         id="path34695" />
      <path
         d="m 120.65351,-1295.24 q 0,5.32 -2.72,8.24 -2.68,2.92 -7.28,2.92 -2.84,0 -5.08,-1.28 -2.2,-1.32 -3.48,-3.8 -1.28,-2.52 -1.28,-6.08 0,-5.32 2.64,-8.2 2.68,-2.88 7.32,-2.88 2.88,0 5.12,1.32 2.24,1.28 3.48,3.76 1.28,2.44 1.28,6 z m -16.2,0 q 0,3.8 1.48,6.04 1.52,2.2 4.8,2.2 3.24,0 4.76,-2.2 1.52,-2.24 1.52,-6.04 0,-3.8 -1.52,-5.96 -1.52,-2.16 -4.8,-2.16 -3.28,0 -4.76,2.16 -1.48,2.16 -1.48,5.96 z"
         id="path34697" />
      <path
         d="m 144.85349,-1295.24 q 0,5.32 -2.72,8.24 -2.68,2.92 -7.28,2.92 -2.84,0 -5.08,-1.28 -2.2,-1.32 -3.48,-3.8 -1.28,-2.52 -1.28,-6.08 0,-5.32 2.64,-8.2 2.68,-2.88 7.32,-2.88 2.88,0 5.12,1.32 2.24,1.28 3.48,3.76 1.28,2.44 1.28,6 z m -16.2,0 q 0,3.8 1.48,6.04 1.52,2.2 4.8,2.2 3.24,0 4.76,-2.2 1.52,-2.24 1.52,-6.04 0,-3.8 -1.52,-5.96 -1.52,-2.16 -4.8,-2.16 -3.28,0 -4.76,2.16 -1.48,2.16 -1.48,5.96 z"
         id="path34699" />
      <path
         d="m 157.57347,-1286.96 q 0.8,0 1.64,-0.12 0.84,-0.12 1.36,-0.32 v 2.68 q -0.56,0.28 -1.6,0.44 -1.04,0.2 -2,0.2 -1.68,0 -3.12,-0.56 -1.4,-0.6 -2.28,-2.04 -0.88,-1.44 -0.88,-4.04 v -12.48 h -3.04 v -1.68 l 3.08,-1.4 1.4,-4.56 h 2.08 v 4.92 h 6.2 v 2.72 h -6.2 v 12.4 q 0,1.96 0.92,2.92 0.96,0.92 2.44,0.92 z"
         id="path34701" />
      <path
         d="m 168.37348,-1314.88 v 7.4 q 0,1.36 -0.08,2.56 -0.04,1.16 -0.12,1.84 h 0.2 q 0.92,-1.36 2.52,-2.28 1.6,-0.92 4.12,-0.92 4,0 6.4,2.8 2.44,2.76 2.44,8.28 0,5.52 -2.44,8.32 -2.44,2.8 -6.4,2.8 -2.52,0 -4.12,-0.92 -1.6,-0.92 -2.52,-2.2 h -0.28 l -0.72,2.72 h -2.52 v -30.4 z m 6.04,11.52 q -3.44,0 -4.76,1.96 -1.28,1.96 -1.28,6.08 v 0.16 q 0,3.96 1.28,6.08 1.32,2.08 4.84,2.08 2.88,0 4.28,-2.12 1.44,-2.12 1.44,-6.12 0,-8.12 -5.8,-8.12 z"
         id="path34703" />
      <path
         d="m 197.57347,-1306.28 q 3.92,0 5.8,1.72 1.88,1.72 1.88,5.48 v 14.6 h -2.56 l -0.68,-3.04 h -0.16 q -1.4,1.76 -2.96,2.6 -1.56,0.84 -4.24,0.84 -2.92,0 -4.84,-1.52 -1.92,-1.56 -1.92,-4.84 0,-3.2 2.52,-4.92 2.52,-1.76 7.76,-1.92 l 3.64,-0.12 v -1.28 q 0,-2.68 -1.16,-3.72 -1.16,-1.04 -3.28,-1.04 -1.68,0 -3.2,0.52 -1.52,0.48 -2.84,1.12 l -1.08,-2.64 q 1.4,-0.76 3.32,-1.28 1.92,-0.56 4,-0.56 z m 4.2,11.32 -3.16,0.12 q -4,0.16 -5.56,1.28 -1.52,1.12 -1.52,3.16 0,1.8 1.08,2.64 1.12,0.84 2.84,0.84 2.68,0 4.48,-1.48 1.84,-1.52 1.84,-4.64 z"
         id="path34705" />
      <path
         d="m 215.4135,-1284.48 h -3.52 v -30.4 h 3.52 z"
         id="path34707" />
      <path
         d="m 225.73348,-1284.48 h -3.52 v -30.4 h 3.52 z"
         id="path34709" />
      <path
         d="m 256.89346,-1290.4 q 0,3.12 -2.32,4.72 -2.32,1.6 -6.24,1.6 -2.24,0 -3.88,-0.36 -1.6,-0.36 -2.84,-1 v -3.2 q 1.28,0.64 3.08,1.2 1.84,0.52 3.72,0.52 2.68,0 3.88,-0.84 1.2,-0.88 1.2,-2.32 0,-0.8 -0.44,-1.44 -0.44,-0.64 -1.6,-1.28 -1.12,-0.64 -3.24,-1.44 -2.08,-0.8 -3.56,-1.6 -1.48,-0.8 -2.28,-1.92 -0.8,-1.12 -0.8,-2.88 0,-2.72 2.2,-4.2 2.24,-1.48 5.84,-1.48 1.96,0 3.64,0.4 1.72,0.4 3.2,1.04 l -1.2,2.8 q -1.36,-0.56 -2.84,-0.96 -1.48,-0.4 -3.04,-0.4 -2.16,0 -3.32,0.72 -1.12,0.68 -1.12,1.88 0,0.92 0.52,1.52 0.52,0.6 1.72,1.2 1.24,0.6 3.28,1.36 2.04,0.76 3.48,1.56 1.44,0.8 2.2,1.96 0.76,1.12 0.76,2.84 z"
         id="path34711" />
      <path
         d="m 270.37347,-1306.32 q 2.72,0 4.72,1.2 2,1.2 3.04,3.4 1.08,2.16 1.08,5.08 v 2.12 h -14.68 q 0.08,3.64 1.84,5.56 1.8,1.88 5,1.88 2.04,0 3.6,-0.36 1.6,-0.4 3.28,-1.12 v 3.08 q -1.64,0.72 -3.24,1.04 -1.6,0.36 -3.8,0.36 -3.08,0 -5.4,-1.24 -2.32,-1.24 -3.64,-3.68 -1.28,-2.44 -1.28,-6.04 0,-3.52 1.16,-6.04 1.2,-2.52 3.32,-3.88 2.16,-1.36 5,-1.36 z m -0.04,2.88 q -2.52,0 -4,1.64 -1.44,1.6 -1.72,4.48 h 10.92 q -0.04,-2.72 -1.28,-4.4 -1.24,-1.72 -3.92,-1.72 z"
         id="path34713" />
      <path
         d="m 294.65343,-1306.32 q 0.6,0 1.28,0.08 0.68,0.04 1.24,0.16 l -0.44,3.24 q -0.52,-0.12 -1.16,-0.2 -0.64,-0.08 -1.16,-0.08 -1.64,0 -3.08,0.92 -1.44,0.88 -2.32,2.52 -0.84,1.6 -0.84,3.76 v 11.44 h -3.52 v -21.44 h 2.88 l 0.4,3.92 h 0.16 q 1,-1.76 2.64,-3.04 1.68,-1.28 3.92,-1.28 z"
         id="path34715" />
      <path
         d="m 318.69344,-1284.52 -3.68,-12.08 q -0.52,-1.64 -0.92,-3.2 -0.4,-1.56 -0.56,-2.48 h -0.16 q -0.16,0.92 -0.52,2.48 -0.36,1.56 -0.92,3.24 l -3.84,12.04 h -4 l -5.88,-21.44 h 3.64 l 2.96,11.44 q 0.44,1.72 0.84,3.48 0.4,1.76 0.56,2.92 h 0.16 q 0.12,-0.68 0.36,-1.68 0.24,-1 0.52,-2.08 0.28,-1.12 0.56,-2 l 3.8,-12.08 h 3.84 l 3.68,12.08 q 0.4,1.4 0.84,3 0.44,1.6 0.6,2.72 h 0.16 q 0.12,-1 0.52,-2.76 0.44,-1.76 0.92,-3.6 l 3,-11.44 h 3.6 l -5.96,21.44 z"
         id="path34717" />
      <path
         d="m 334.41341,-1313.96 q 0.8,0 1.4,0.56 0.64,0.52 0.64,1.68 0,1.16 -0.64,1.72 -0.6,0.52 -1.4,0.52 -0.88,0 -1.48,-0.52 -0.6,-0.56 -0.6,-1.72 0,-1.16 0.6,-1.68 0.6,-0.56 1.48,-0.56 z m 1.72,8.04 v 21.44 h -3.52 v -21.44 z"
         id="path34719" />
      <path
         d="m 356.89339,-1290.4 q 0,3.12 -2.32,4.72 -2.32,1.6 -6.24,1.6 -2.24,0 -3.88,-0.36 -1.6,-0.36 -2.84,-1 v -3.2 q 1.28,0.64 3.08,1.2 1.84,0.52 3.72,0.52 2.68,0 3.88,-0.84 1.2,-0.88 1.2,-2.32 0,-0.8 -0.44,-1.44 -0.44,-0.64 -1.6,-1.28 -1.12,-0.64 -3.24,-1.44 -2.08,-0.8 -3.56,-1.6 -1.48,-0.8 -2.28,-1.92 -0.8,-1.12 -0.8,-2.88 0,-2.72 2.2,-4.2 2.24,-1.48 5.84,-1.48 1.96,0 3.64,0.4 1.72,0.4 3.2,1.04 l -1.2,2.8 q -1.36,-0.56 -2.84,-0.96 -1.48,-0.4 -3.04,-0.4 -2.16,0 -3.32,0.72 -1.12,0.68 -1.12,1.88 0,0.92 0.52,1.52 0.52,0.6 1.72,1.2 1.24,0.6 3.28,1.36 2.04,0.76 3.48,1.56 1.44,0.8 2.2,1.96 0.76,1.12 0.76,2.84 z"
         id="path34721" />
    </g>
    <g
       id="path32656"
       inkscape:transform-center-x="0.084456319"
       inkscape:transform-center-y="-2.2777138"
       transform="matrix(0.17965052,0,0,0.17965052,50.952103,358.0268)">
      <path
         style="color:#000000;fill:#00ffff;fill-opacity:0.48996;stroke-width:18.8976;-inkscape-stroke:none"
         d="m 395.9798,-1402.8998 -81.26373,-41.5815 -80.32349,43.3699 14.43448,-90.1358 -66.06857,-62.9902 90.18473,-14.1254 39.49087,-82.3 41.30275,81.4058 90.47527,12.1259 -64.65823,64.437 z"
         id="path34754" />
      <path
         style="color:#000000;fill:#ff0000;-inkscape-stroke:none"
         d="m 312.19727,-1672.0117 -45.62305,95.082 -104.19336,16.3203 76.33008,72.7735 -16.67578,104.1347 92.79882,-50.1054 93.88477,48.039 -3.44531,-18.832 -15.53125,-84.9082 74.70117,-74.4453 -104.52734,-14.0098 z m 0.47265,42.6972 34.88867,68.7618 76.42188,10.2441 -54.61524,54.4277 13.875,75.8496 -68.64257,-35.125 -67.84766,36.6348 12.19336,-76.1367 -55.80664,-53.207 76.17578,-11.9317 z"
         id="path34756" />
    </g>
    <g
       id="path32764"
       inkscape:transform-center-x="0.47106088"
       inkscape:transform-center-y="-1.1046912"
       transform="matrix(0.17965052,0,0,0.17965052,44.56788,358.46736)">
      <path
         style="color:#000000;fill:#00ffff;fill-opacity:0.48996;stroke-width:18.8976;-inkscape-stroke:none"
         d="m -36.769552,-1544.3212 31.653036,51.404 60.28996,3.0667 -39.106761,45.9885 15.714031,58.2868 -55.822343,-22.9815 -50.578155,32.9566 4.606656,-60.1919 -46.973052,-37.9186 58.669415,-14.2191 z"
         id="path34760" />
      <path
         style="color:#000000;fill:#ff0000;-inkscape-stroke:none"
         d="m -38.761719,-1565.5781 -6.833984,17.8847 -19.773438,51.75 -72.449219,17.5586 58.00586,46.8243 -5.689453,74.3281 62.457031,-40.6953 68.931641,28.3789 -19.404297,-71.9766 48.291015,-56.7891 -74.44921825,-3.7871 z m 3.984375,42.5136 24.21875,39.3321 46.13086,2.3457 -29.9218754,35.1875 12.0234374,44.5976 -42.710937,-17.5839 -38.701172,25.2167 3.52539,-46.0546 -35.941406,-29.0137 44.890625,-10.8789 z"
         id="path34762" />
    </g>
    <g
       id="path32892"
       inkscape:transform-center-x="-0.67875583"
       inkscape:transform-center-y="-0.8814079"
       transform="matrix(0.17965052,0,0,0.17965052,51.237102,361.22492)">
      <path
         style="color:#000000;fill:#00ffff;fill-opacity:0.48996;stroke-width:18.8976;-inkscape-stroke:none"
         d="m 726.90577,-1385.9293 -48.53967,-34.6917 -56.09608,20.3186 17.99419,-56.8843 -36.65874,-47.0718 59.6607,-0.4647 33.43974,-49.4105 18.87814,56.5971 57.32563,16.5343 -47.99336,35.4437 z"
         id="path34766" />
      <path
         style="color:#000000;fill:#ff0000;-inkscape-stroke:none"
         d="m 699.61133,-1575.2852 -41.38672,61.1524 -73.83789,0.5742 45.37109,58.2578 -22.27148,70.4024 69.42773,-25.1465 60.07422,42.9355 -0.63867,-19.1347 -1.82422,-54.6641 59.39844,-43.8672 -70.94922,-20.4629 z m -5.81055,42.3028 14.39258,43.1484 43.70117,12.6035 -36.58789,27.0215 1.51758,45.459 -37.00586,-26.4473 -42.76563,15.4903 13.71875,-43.3653 -27.94726,-35.8867 45.48242,-0.3535 z"
         id="path34768" />
    </g>
    <g
       id="path32999"
       transform="matrix(0.16286642,0,0,0.15357404,56.565092,326.16511)">
      <path
         style="color:#000000;fill:#00ffff;fill-rule:evenodd;stroke-width:19.1433;-inkscape-stroke:none"
         d="m 316.78384,-927.72412 c -6.80701,8.22515 -14.44567,-5.11772 -13.67073,-11.3137 2.10003,-16.79073 22.91619,-21.4219 36.29813,-16.02778 23.93716,9.64883 29.50223,40.04388 18.38482,61.28258 -16.31525,31.16864 -57.39419,37.79515 -86.26701,20.74185 -38.48293,-22.72936 -46.17706,-74.82227 -23.0989,-111.25145 29.04151,-45.84238 92.28709,-54.60468 136.23589,-25.45588 53.22788,35.30296 63.05865,109.7725 27.81297,161.22027 -41.53581,60.62942 -127.27087,71.52922 -186.20476,30.17001 -68.04151,-47.75083 -80.01083,-144.77776 -32.52705,-211.18918 53.95409,-75.4609 162.29069,-88.5002 236.17364,-34.8841 82.88549,60.1491 96.99513,179.80802 37.24112,261.15807 -66.33827,90.31397 -197.32866,105.4943 -286.14251,39.59817"
         id="path34772" />
      <path
         style="color:#000000;fill:#000000;fill-opacity:0.562249;fill-rule:evenodd;-inkscape-stroke:none"
         d="m 320.07031,-1106.4629 c -51.70401,2.3342 -101.94763,26.3658 -134.10937,71.3477 -50.49178,70.61843 -37.78539,173.64194 34.81445,224.59176 63.15398,44.32082 154.89533,32.6587 199.59961,-32.5957 38.14857,-55.68509 27.52448,-136.17556 -30.41797,-174.60546 -48.21005,-31.975 -117.50487,-22.373 -149.61328,28.31054 -25.80041,40.72628 -17.19743,98.91328 26.31836,124.61523 33.23058,19.62715 80.49517,11.97832 99.61328,-24.54492 6.73305,-12.86283 8.35528,-27.98526 4.73438,-41.8457 -3.62091,-13.86045 -13.05719,-26.72274 -28.01954,-32.75391 -9.16806,-3.69555 -19.63528,-3.89278 -29.21484,-0.42773 -9.57956,3.46504 -18.64026,11.99228 -20.16016,24.14453 -0.9731,7.78046 1.64258,13.18284 6.24805,18.51172 2.30274,2.66443 5.6226,5.4871 10.71094,6.07226 5.08834,0.58516 10.51121,-2.26557 13.58398,-5.97851 l -14.74804,-12.20508 c -0.33073,0.39963 1.58377,-1.03706 3.34961,-0.83399 1.76584,0.20308 1.94882,0.84537 1.58789,0.42774 -0.72188,-0.83526 -1.53816,-5.20167 -1.73633,-3.61719 0.58013,-4.63846 2.97678,-6.81984 7.67578,-8.51953 4.699,-1.69969 11.33105,-1.51693 15.54492,0.18164 8.97478,3.61764 14.28969,10.777 16.65625,19.83594 2.36656,9.05893 1.21247,19.75305 -3.17187,28.1289 -13.51235,25.81399 -48.40493,31.41887 -72.91993,16.93946 -33.44998,-19.75674 -40.23672,-65.75471 -19.88086,-97.88672 25.97456,-41.00118 83.17193,-48.92398 122.85938,-22.60158 48.5132,32.17605 57.54975,100.62365 25.20703,147.834 -38.36726,56.00431 -118.0949,66.14165 -172.80859,27.74414 -63.48305,-44.55175 -74.71592,-135.58284 -30.24024,-197.78714 50.73163,-70.9539 153.0796,-83.2755 222.76563,-32.705 78.41947,56.90815 91.82576,170.58464 35.14844,247.74605 -63.08234,85.88128 -188.09258,100.37153 -272.72461,37.57812 l -11.40625,15.37305 c 92.99547,68.99873 229.96646,53.12734 299.56054,-41.61914 62.83057,-85.53853 48.01737,-211.18038 -39.33398,-274.57028 -34.15987,-24.7895 -75.25843,-36.1006 -115.47266,-34.2852 z"
         id="path34774" />
    </g>
  </g>
</svg>
